/* XPM */
static char *_dfe8e6039144fc5c36202846d76c039ZvgKxmKNPWEpd13y[] = {
/* columns rows colors chars-per-pixel */
"50 50 225 2 ",
"   c None",
".  c #020101",
"X  c #0B0402",
"o  c #0F0C05",
"O  c #1D0C0B",
"+  c #140806",
"@  c #19140C",
"#  c #171B18",
"$  c #070E11",
"%  c #240D0F",
"&  c #271814",
"*  c #341E1D",
"=  c #230F10",
"-  c #2B251A",
";  c #39251C",
":  c #36210C",
">  c #1C2923",
",  c #372C23",
"<  c #393429",
"1  c #36393C",
"2  c #2F2222",
"3  c #422B1B",
"4  c #432D2A",
"5  c #433325",
"6  c #45352A",
"7  c #493929",
"8  c #543A2A",
"9  c #483936",
"0  c #533934",
"q  c #6B3323",
"w  c #713224",
"e  c #344138",
"r  c #56442E",
"t  c #44443E",
"y  c #554231",
"u  c #5A4333",
"i  c #5B453E",
"p  c #5C4C3B",
"a  c #56493B",
"s  c #63482D",
"d  c #664C37",
"f  c #764736",
"g  c #6B533D",
"h  c #65523C",
"j  c #74573B",
"k  c #79422B",
"l  c #594943",
"z  c #5C554E",
"x  c #595953",
"c  c #4C4B45",
"v  c #654A43",
"b  c #655242",
"n  c #6C5544",
"m  c #6A564A",
"M  c #6D5A4C",
"N  c #685948",
"B  c #725C45",
"V  c #735C4C",
"C  c #745449",
"Z  c #6D5C51",
"A  c #655F50",
"S  c #715E52",
"D  c #795A57",
"F  c #5B6454",
"G  c #6E604E",
"H  c #7D6145",
"J  c #73614C",
"K  c #7D654D",
"L  c #7D694C",
"P  c #6C645B",
"I  c #696556",
"U  c #746253",
"Y  c #7B6A55",
"T  c #74645B",
"R  c #746B5C",
"E  c #7C6C5C",
"W  c #7C6757",
"Q  c #675B61",
"!  c #756D63",
"~  c #7B6E64",
"^  c #766967",
"/  c #7D7366",
"(  c #7D746B",
")  c #7A7669",
"_  c #7E7672",
"`  c #7A7C74",
"'  c #72686A",
"]  c #844A35",
"[  c #865E49",
"{  c #955F4A",
"}  c #86664A",
"|  c #926D4B",
" . c #98754E",
".. c #846B55",
"X. c #8A6C52",
"o. c #826C5D",
"O. c #846656",
"+. c #86735B",
"@. c #8C735B",
"#. c #8B7355",
"$. c #947455",
"%. c #9D7D5C",
"&. c #977759",
"*. c #A17652",
"=. c #846C63",
"-. c #846A68",
";. c #837465",
":. c #84756B",
">. c #837A6E",
",. c #8B7B6D",
"<. c #8B7565",
"1. c #9B7D61",
"2. c #937B66",
"3. c #817770",
"4. c #847B73",
"5. c #8A7D74",
"6. c #847C7A",
"7. c #877C79",
"8. c #A37B69",
"9. c #7C8372",
"0. c #A3845D",
"q. c #A6855B",
"w. c #9A846A",
"e. c #8B8376",
"r. c #86817B",
"t. c #8B847C",
"y. c #8F897C",
"u. c #878072",
"i. c #9D8973",
"p. c #92857A",
"a. c #938A7C",
"s. c #9C8C7A",
"d. c #988775",
"f. c #9C917D",
"g. c #A38363",
"h. c #A98A69",
"j. c #A78C75",
"k. c #AD9173",
"l. c #A39179",
"z. c #AB957B",
"x. c #A69277",
"c. c #B3987E",
"v. c #867F83",
"b. c #868184",
"n. c #8C8482",
"m. c #8E8A83",
"M. c #8B8689",
"N. c #8C8A8B",
"B. c #938C83",
"V. c #928C8A",
"C. c #998F83",
"Z. c #969184",
"A. c #9B9385",
"S. c #95938C",
"D. c #9C958A",
"F. c #9E998C",
"G. c #97988B",
"H. c #8F8C90",
"J. c #928F92",
"K. c #959393",
"L. c #999493",
"P. c #9B9A94",
"I. c #979598",
"U. c #999799",
"Y. c #9C9A9B",
"T. c #A2968B",
"R. c #A29B8D",
"E. c #A89B87",
"W. c #B29C82",
"Q. c #A49D91",
"!. c #A19E9B",
"~. c #A89D93",
"^. c #9FA09A",
"/. c #ACA18B",
"(. c #B3A38A",
"). c #A6A194",
"_. c #AAA494",
"`. c #A4A39C",
"'. c #ABA59A",
"]. c #A7A89C",
"[. c #ACAA9C",
"{. c #ADA893",
"}. c #B2AB9D",
"|. c #B9AB9B",
" X c #B4A697",
".X c #B8B29F",
"XX c #9F9EA0",
"oX c #A09FA1",
"OX c #A6A5A2",
"+X c #AAA7A2",
"@X c #ABAAA4",
"#X c #AEADAA",
"$X c #A7A7A4",
"%X c #B2ADA2",
"&X c #B0AEA9",
"*X c #BBACA3",
"=X c #AFB1A3",
"-X c #B4B3A5",
";X c #BAB2A3",
":X c #B4B3AC",
">X c #BBB5AB",
",X c #BBBBAD",
"<X c #B6B8A9",
"1X c #BCBCB3",
"2X c #BEBDB8",
"3X c #C1B19E",
"4X c #C2B8AA",
"5X c #C1BDB4",
"6X c #C5BEB9",
"7X c #BEC0B2",
"8X c #BFC0AF",
"9X c #C3C3B4",
"0X c #C4C4BB",
"qX c #CAC5BB",
"wX c #CACABD",
"eX c #C8C7B9",
"rX c #CCCCC3",
"tX c #CAC9C3",
"yX c #D1CBC3",
"uX c #CED1C9",
"iX c #D3D3CC",
"pX c #D0D0C7",
"aX c #D7D6D1",
"sX c #DBDBD4",
"dX c #D8D7D2",
/* pixels */
"                          7 8 h n v d                                                               ",
"                          5 u v n g d                                                               ",
"                          5 r b m j d                                                               ",
"                        , 7 r h n B d d                                                             ",
"                        < 8 p Z S n g d                                                             ",
"                      < 5 0 i b M S B d B                                                           ",
"                      , 5 0 y v m m m n n                                                           ",
"                      - < r r a m M m m j B                                                         ",
"                      , < y y p b G J B j B                                                         ",
"                      < y r y h G Y E E Y J Y 5.                                                    ",
"                      < r r h B L +.w.f.f.f.C.!.Q.Z.a.a.                                            ",
"                      y p j H L } #.#.i./..X&X1X2X1X>X;X@X:X-X                                      ",
"                  < a B K H H H j j s d +./.,X5XwXwXpXiXiXiXpX0X1X                                  ",
"                < a R d.s.w.} j r 7 r : 3 U  X5X0XyXaXdXsXsXsXiXwX4X X                              ",
"              0 h R a.'.-X.Xw.N 7 # < e ; a B.>X0XrXdXsXsXsXdXyX4X3X XR.y.`                         ",
"            I E E ,.R.-X1X9X).A e # # x x I S.,X0XpXsXsXsXsXiXwX|.c.c.W.A.e.b.                      ",
"          ! e.a.a.e.Q.-X7XtXwXF.N e t I ( p.'.1XtXiXsXsXsXiXpX6X|.k.k.W.W.l.a.t.4.                  ",
"        ) y.Z.F.Z.C.P.&X7XwXuXuX8XG.G.G.V.T.%X5XtXiXsXdXdXuXtX6X%XW.W.(.W.k.j.w.;.;.                ",
"      I >.Z.R.R.Z.C.Q.@X1X0XrXuXiXuXrX8X|.|.>XtXtXyXiXaXiXrX2X&XR.l.i.z.c.k.h.h.+.Y                 ",
"      R y.F.F.F.D.Z.F.[.<X0XwXwXwXwX0X;X X X4X6XtXrXyXyXtX5X+X5.P h u j $.h.h.%.%.L K /             ",
"    A ) a.A.F.A.Z.A.T.[.:X,X5X4X3X.X Xj.&.8.W.3X6XtXwX6X>X~.5.l , < # : 8 | h.q.0.X.H J / t.(       ",
"    ! y.A.F.R.A.a.p.a._.;X%X/./.c.(.k.[ w ] { j.|.6XqXqX%X:.b < @ 1 1 - 3 f q.h.0.%.X.L Y +.;.b u u ",
"  I >.D.).).).).G.Z.Z.D.'.{.E.l.k.x.j.[ w w w ] 8.3X6XqX0X~.! t # $ 1 t 7 s  .h.0.w.$.X.K B } } K V ",
"  ! e.D.R._._.R.Z.y.A.F.R.A.l.l.i.i.w.X.f f f f [ j.4XtXuXyX:X9.e > e F Y g } q.q.0.0.$.X.K B ..@.@.",
"  >.a.D.).).).A.C.e.p.C.A.a.,.w.,.-.o.O.D O.1.$.8.8.z.4XpXdXaXeXI.` 9.9.y.w.X.*.q.q.g.1.&.#.U S =.2.",
"I e.D.).R.).).F.Z.a.y.y.e.5.:.~ E Z C C C O.i.x.j.j.k.z.4XiXaXaXuXtX7X:X}./.z.&.*.q.h.h.1.<.E U T :.",
"R a.)._.]._.).F.a.a.y.e.u.) W Z l 6 < 0 C W ;.l.h.w.z.h.c.9XpXiXaXiXaXiXwX4X.Xc.&.*.h.h.1.+.Y U T ^ ",
") G.[.[.[..X[.R.a.e.u.>.( R M i ; = + O 6 T =.;.i.<...l.z.|.wXtXtXtXtXrXwX6X4X|.k.| *.h.1.Y U G W T ",
"9.F.[.-X-X-X-X[.D.5.>.( ! M i 8 - X . . o l -.;.+.i.J N x./.,X0X2X2X0X2X5X>X*XE.j.&.| g.%.Y Z M T =.",
"/ f.[.<X7X8X,X<X_.p.>.=.T l 4 & @ . . . . & A >.;.U +.B J T.+X:X:X:X:X:X&X&X!.A.2.O.[ &.%.O.M m n V ",
">.d.F.=X1X9X9X>X[.A.5./ U a ; + X . . . . @ 0 T >.~ n <.Y 5.'.OX`.`.+X`.'.+X[.Q.d...} | 0.@.V U n C ",
"a.f.f.E.;X,X5X,X[.T.e.:.T 0 * % + + . . . o , m ^ :.~ ~ d.m.K.'.P.V.G.!.`.OX`.`.D.2.#.$.*.g.@.<.o.V ",
").).E.f.{.8X,X<X[.F.e./ M v 8 & % % % $ . . & l ' _ 7.7.B.L.L.K.V.Z.B.V.L.Y.`.P.R.w.2.%.%.0.h.d.d.O.",
"=X<X=XR.E.[.,X<X{.F.y.;.V v s 4 % % % + + + + < Q 6.M.J.K.I.Y.N.b.n.m.V.L.P.`.Y.Q.d.2.g.q.q.h.l.i.Y ",
"8X8X8X<X)./.<X.X_.D.y.>.D C C 0 % % * * & % + = z 3.N.J.I.H.K.N.b.6.b.m.G.`.].$XQ.j.1.g.q.q.g.w.<.b ",
"8X9XeX9X.X{.{.=X_.D.Z.p.-.C [ C 0 * 4 0 4 & & 2 9 ' v.V.J.H.b.m.t.e.r.B.A.^.$X#X!.C.2.%. . .0.$.G   ",
"9X9XwXeXeX.X{.{._.T.A.T.5.=.O.-.=.C i i i 4 9 c x ' v.M.H.H.n.r.m.t.m.m.G.`.$X&X&XT.2.&. . .0.+.T   ",
"wXeXwXwXwX9X.X{.~.T.T.T.T.5.<.O.-.-.O.v i c l Q ' v.b.M.H.M.N.e.t.m.Z.L.P.OX@X:X:X%Xs.@.| | $.w.4.  ",
"uXwXwXwXwXrX8X[._.~.T.T.~.v.5.<.-.-.^ D l z Q _ 6.v.M.H.M.M.M.t.r.m.G.Q.OX@X&X:X:X:X~.2.X.| &.y.M.  ",
"wXuXuXwXuXwXeX8X'.R.C.C.T.C.5.<.-.3.-.-.' Q ^ v.v.v.H.M.M.M.n.r.r.n.G.^.+X&X:X:X&X&X-XT.2.#.@.y.m.  ",
"wXrXrXuXpXuXwX8X-XR.Z.p.a.p.,.:.:.5.7.7.3._ 6.v.M.N.m.B.V.S.S.S.N.Z.L.`.$X:X:X<X:X#X&X'.j.2.2.N.    ",
"wXrXrXrXwXpXwXeX,X'.f.e.e.e.5.:.>.4.t.t.r.7.6.b.n.n.B.V.V.G.G.^.^.^.^.`.@X#X:X:X1X&X@X'.L.a.a.      ",
"9XwXrXwXwXwXwXwX,X}.D.e.>.5.4.:.3.( 4.e.7.4.6.9.r.r.t.V.S.A.Z.G.].@X+X].].`.@X:X&X:X$X`.P.D.        ",
"=X7XwXwX9X8X9XeX9X}.R.y.>.( ( ( ( ~ ! / ;.;.:.4.n.p.m.S.P.OX`.L.S.^.$X+X`.OX`.+X+X+X`.!.Q.          ",
"[.>X0X0X,X<X8X9X8X[.R.a.4.) ! ^ ^ R R ~ / / ) 4.7.n.B.P.^.$X&X&X^.L.S.P.U.!.Y.`.oXoX!.!.            ",
"[.%X7X9X,X-X<X<X<X-XQ.a.e.4.( ! ! P ! ! ( >.4.6.t.B.B.G.^.`.].@X#X#X^.I.K.K.L.L.!.oXU.L.            ",
"'.%X-X,X<X=X].[.-X=XR.a.t.5.4.( ^ P P P ~ >.3.4.r.t.t.N.G.P.P.`.$X#X#X$XoXU.U.U.U.U.J.              ",
"~.).%X-X.X[.).).[.[.R.a.t.7.4.3.3.) R I I ) _ 3.4.r.t.t.N.K.L.Y.XX$X$X$XoXXXXX!.U.L.n.              ",
"C.Q.'. X@X_.Q.F._.R.D.C.p.e.5.4.5.r.4./ R R ^ _ 6.r.t.m.V.J.I.I.I.XXXXXXXXXXXXI.L.n.:.              ",
"A.F.~.!.'.F.Z.F.Q.Q.R.Z.a.t.7.5.t.n.t.7._ ! ! ) 4.r.b.n.N.H.K.K.I.I.I.I.I.I.I.I.N._ T               "
};
