/* XPM */
static char *_0f7754a8ab64194d35b550c12a3e746Djy6xEol6d7YJ7T9[] = {
/* columns rows colors chars-per-pixel */
"50 50 139 2 ",
"   c None",
".  c #040404",
"X  c #0F0B0B",
"o  c #150E0D",
"O  c #1A1110",
"+  c #1E1818",
"@  c #211514",
"#  c #271F1D",
"$  c #2A1A1A",
"%  c #32221F",
"&  c #222122",
"*  c #2A2423",
"=  c #2B2A2B",
"-  c #372321",
";  c #392623",
":  c #332927",
">  c #3B2925",
",  c #332E2E",
"<  c #3F2C28",
"1  c #3F312E",
"2  c #323131",
"3  c #3D3635",
"4  c #3B3935",
"5  c #4D1B17",
"6  c #501E1A",
"7  c #402926",
"8  c #402328",
"9  c #432D2A",
"0  c #4B2B2D",
"q  c #552D27",
"w  c #46312D",
"e  c #4B332E",
"r  c #473632",
"t  c #4A3531",
"y  c #443D32",
"u  c #4E3B37",
"i  c #423D3E",
"p  c #4D3A38",
"a  c #513433",
"s  c #5A3235",
"d  c #543A35",
"f  c #593B36",
"g  c #5F3738",
"h  c #543F3B",
"j  c #5B3E3A",
"k  c #60332D",
"l  c #603636",
"z  c #653B36",
"x  c #643C3A",
"c  c #52413E",
"v  c #5D413B",
"b  c #63443E",
"n  c #69443F",
"m  c #6C483F",
"M  c #71473F",
"N  c #5E3B40",
"B  c #454343",
"V  c #484748",
"C  c #4C4A4B",
"Z  c #514340",
"A  c #5D4443",
"S  c #534D44",
"D  c #5A4B48",
"F  c #555152",
"G  c #5E5D5E",
"H  c #654740",
"J  c #6C4541",
"K  c #674842",
"L  c #6B4A44",
"P  c #62484C",
"I  c #6C4E49",
"U  c #754742",
"Y  c #724D47",
"T  c #794A43",
"R  c #724F48",
"E  c #75524B",
"W  c #7A554D",
"Q  c #684D51",
"!  c #6D5950",
"~  c #775751",
"^  c #7C5750",
"/  c #725954",
"(  c #7E5952",
")  c #765D58",
"_  c #7E5E59",
"`  c #746843",
"'  c #6E605D",
"]  c #73625E",
"[  c #7B625E",
"{  c #6C6D6F",
"}  c #736563",
"|  c #7A6860",
" . c #7B706E",
".. c #767675",
"X. c #855248",
"o. c #8E5A4D",
"O. c #835C54",
"+. c #895F57",
"@. c #865F59",
"#. c #885F58",
"$. c #8A6057",
"%. c #82625C",
"&. c #8B625B",
"*. c #976052",
"=. c #90635B",
"-. c #91685F",
";. c #806562",
":. c #8A6560",
">. c #836A64",
",. c #8C6A64",
"<. c #856C69",
"1. c #8A6E69",
"2. c #926D65",
"3. c #916F6A",
"4. c #8F716C",
"5. c #93726D",
"6. c #98736E",
"7. c #99756C",
"8. c #817274",
"9. c #927671",
"0. c #937A76",
"q. c #977975",
"w. c #9B7A72",
"e. c #9B7B75",
"r. c #937C78",
"t. c #9D827E",
"y. c #A78B7F",
"u. c #858485",
"i. c #8E8A8A",
"p. c #A68F8B",
"a. c #AB8F88",
"s. c #AF9489",
"d. c #AA968C",
"f. c #A99692",
"g. c #B29C91",
"h. c #B0A09D",
"j. c #A7A1A1",
"k. c #B8AAA8",
"l. c #BEAFAD",
/* pixels */
"                                                        B V                                         ",
"                                                            V C                                     ",
"                                                            = 2                                     ",
"                                      2 F G {             = = ..k.5.                                ",
"                                    = , ! y 2 B             j.f.:.#.                                ",
"                                l.u.= & S ` 4 B             [ E ( O.:.                              ",
"                                9.g.i.F                       K E ( #.5.                            ",
"                              2.O.W <...                        K E ( ,.                            ",
"                            5.O.E L f           Q P             v b W O.2.                          ",
"                          6.$.E K j           N N x j             v K W @.5.                        ",
"                          &.W K f             J *.o.T               b K W #.                        ",
"                        2.W K f h             X.o.U g 8           ] v b L E                         ",
"                        ( L d e } }           s g z M 0         v w w t n L                         ",
"                        E j 7 > ; ; w  .r.,.1.;.L W n A   e.1.} t 7 e f d                           ",
"                        R v e 9 ; ; ; Z ) O.^ %.;.a 9 >.:.&.( c d d f                               ",
"                              j d d t p L O.( O.g.A ] a.( $.E p d j                                 ",
"                                      c v O.O.O.s.>.d.7.( +.R r                                     ",
"                                        v ( O.O.a.<.a.2.O.O.L r                                     ",
"                                        d W O.+.w.n %.-.O.O.L p                                     ",
"                                        f E O.+.O.6 k +.( ( L t                                     ",
"                                          I ( ( X.5 q O.W W b e                                     ",
"                                          K W W ( q z W E E b                                       ",
"                                          K E E ( m Y W Y Y v                                       ",
"                                          K E W W Y W E E L d                                       ",
"                                          L W ( W W W W W L x                                       ",
"                                          _ ( O.W O.O.O.O.Y H                                       ",
"                                          &.O.O.O.+.O.O.O.E L                                       ",
"                                          %.O.O.$.$.+.O.O.( ~                                       ",
"                                        q.&.O.( $.=.#.O.O.W %.                                      ",
"                                        1.O.$.O.=.&.$.O.O.W %.                                      ",
"                                      D ~ $.O.( $.O.^ ^ O.( H !                                     ",
"                                    # A $.( E W E L v H R O.~ 1                                     ",
"                                    I $.( L v v t 9 > w v E &./ :                                   ",
"                                    &.E j w ; ; ; ; ; ; e v W %.]                                   ",
"                                  =.R d < % O o o @ $ o % t H O.5.                                  ",
"                                $.E d 9 ;     . .     . X 9 v E ,.                                  ",
"                                W j 9 -                     v K ( 1.                                ",
"                              O.H e ;                         b R [                                 ",
"                            &.E j p                             L W )                               ",
"                            W v h <.r.                          L W E                               ",
"                            K v b b H E [ 9.t.                ) L Y                                 ",
"                              b b b b b K L ~                 E E J                                 ",
"                                    n K Y Y b               _ R R J                                 ",
"                                        e d ;               E R Y                                   ",
"                                    i * +                 _ E E Y                                   ",
"                                    *                     W W W                                     ",
"                                                            L Y                                     ",
"                                                            , 3                                     ",
"                                                            i V                                     ",
"                                                              3                                     "
};
