/* XPM */
static char *d6b06cb5e5144a8f99ad3959f62da9f9EkzhqYiycEcKoeDk[] = {
/* columns rows colors chars-per-pixel */
"50 50 240 2 ",
"   c #180108",
".  c #1D0817",
"X  c #25060B",
"o  c #2A0B18",
"O  c #2B1617",
"+  c #3C1C1B",
"@  c #341719",
"#  c #370E10",
"$  c #3F221A",
"%  c #2D1524",
"&  c #371925",
"*  c #351729",
"=  c #3C2224",
"-  c #3C2629",
";  c #3B2A37",
":  c #451B1B",
">  c #42211D",
",  c #46271F",
"<  c #451E23",
"1  c #501E21",
"2  c #442323",
"3  c #4A2524",
"4  c #462C23",
"5  c #4A2B25",
"6  c #44252A",
"7  c #442A2E",
"8  c #4C2C2C",
"9  c #522B2B",
"0  c #522927",
"q  c #4E322B",
"w  c #4D3328",
"e  c #54342C",
"r  c #59372E",
"t  c #54392E",
"y  c #5A382F",
"u  c #523027",
"i  c #432D33",
"p  c #4C2D32",
"a  c #442937",
"s  c #4A3438",
"d  c #533432",
"f  c #5A3434",
"g  c #553B34",
"h  c #5B3B33",
"j  c #553C3B",
"k  c #5C3E3B",
"l  c #543639",
"z  c #5A2F31",
"x  c #643938",
"c  c #5B4136",
"v  c #54443E",
"b  c #5B423D",
"n  c #58483C",
"m  c #4E423E",
"M  c #63443C",
"N  c #67463C",
"B  c #3C2D40",
"V  c #493645",
"C  c #563D49",
"Z  c #50394C",
"A  c #643F49",
"S  c #5C4443",
"D  c #5D4B43",
"F  c #5D444B",
"G  c #5C4C4A",
"H  c #544845",
"J  c #5D5546",
"K  c #594759",
"L  c #5B5058",
"P  c #624544",
"I  c #6B4343",
"U  c #634B45",
"Y  c #6B4C44",
"T  c #624549",
"R  c #644C4B",
"E  c #6A4D4B",
"W  c #6D4749",
"Q  c #764949",
"!  c #6C5446",
"~  c #6C544B",
"^  c #6C594C",
"/  c #625248",
"(  c #73544B",
")  c #74594C",
"_  c #78574A",
"`  c #694E52",
"'  c #644955",
"]  c #6C5453",
"[  c #6C5C54",
"{  c #6D5C5A",
"}  c #665557",
"|  c #735B53",
" . c #7C5C53",
".. c #725D5A",
"X. c #7A5E5A",
"o. c #755555",
"O. c #734F53",
"+. c #6D6455",
"@. c #736354",
"#. c #7B6255",
"$. c #75645A",
"%. c #7D625C",
"&. c #7D6C5D",
"*. c #736A5B",
"=. c #7D705F",
"-. c #695768",
";. c #775D65",
":. c #6F5E72",
">. c #624D60",
",. c #6D6265",
"<. c #7C6362",
"1. c #7C6B64",
"2. c #796969",
"3. c #7D7163",
"4. c #7B726B",
"5. c #766676",
"6. c #7B747A",
"7. c #6F6170",
"8. c #5F5065",
"9. c #815F54",
"0. c #84585B",
"q. c #804B51",
"w. c #81635B",
"e. c #816D5E",
"r. c #826356",
"t. c #905F62",
"y. c #B15969",
"u. c #846464",
"i. c #826D63",
"p. c #836D6B",
"a. c #8A6968",
"s. c #93686A",
"d. c #847264",
"f. c #84746B",
"g. c #8B756B",
"h. c #86796D",
"j. c #8B7A6D",
"k. c #897465",
"l. c #92736D",
"z. c #93786D",
"x. c #866B79",
"c. c #837473",
"v. c #8D7C72",
"b. c #8A7878",
"n. c #927C73",
"m. c #9B7C73",
"M. c #927C7B",
"N. c #9A7777",
"B. c #A67A7A",
"V. c #AF6A76",
"C. c #C96779",
"Z. c #8E8172",
"A. c #938375",
"S. c #94837A",
"D. c #9B847B",
"F. c #9B897C",
"G. c #9C8176",
"H. c #8D816F",
"J. c #A2877D",
"K. c #7E7485",
"L. c #7C6E82",
"P. c #836D82",
"I. c #877789",
"U. c #927B8D",
"Y. c #977B86",
"T. c #8C7C93",
"R. c #917E93",
"E. c #B87B88",
"W. c #C57885",
"Q. c #8B818A",
"!. c #9D8A83",
"~. c #988587",
"^. c #988798",
"/. c #8F8993",
"(. c #A48D83",
"). c #A38D89",
"_. c #A88785",
"`. c #B78A8A",
"'. c #AC948C",
"]. c #AB9C8D",
"[. c #A4958A",
"{. c #B2968C",
"}. c #A28997",
"|. c #AC9A96",
" X c #B39C93",
".X c #BC9D93",
"XX c #B79693",
"oX c #AAA28F",
"OX c #A7A08E",
"+X c #B5A28F",
"@X c #ADA293",
"#X c #ABA397",
"$X c #B5A394",
"%X c #BCA395",
"&X c #B5A49B",
"*X c #BBA69A",
"=X c #B4A99E",
"-X c #BDAA9C",
";X c #BAA997",
":X c #998AA2",
">X c #9F91A6",
",X c #A58EA2",
"<X c #A696A8",
"1X c #B59BA8",
"2X c #AB9BB2",
"3X c #B9A6A5",
"4X c #B8ABAE",
"5X c #C7848C",
"6X c #C59699",
"7X c #D28E9A",
"8X c #EC8C9A",
"9X c #C2A49A",
"0X c #C2A69A",
"qX c #D29AA2",
"wX c #E79CA6",
"eX c #F09FB0",
"rX c #C7A7A5",
"tX c #D2A9A9",
"yX c #DBB7BA",
"uX c #D2AFB1",
"iX c #E5A8AA",
"pX c #E7ABB3",
"aX c #E5B7BA",
"sX c #FCAABA",
"dX c #DCC3BD",
"fX c #FABAC6",
"gX c #F4B8C6",
"hX c #DECBC6",
"jX c #EAC6C7",
"kX c #E5D3CD",
"lX c #FEC9D9",
"zX c #FDD6D9",
"xX c #EFCECD",
"cX c #FFDEE2",
"vX c #FEE9E8",
"bX c #FFF3F3",
"nX c #FDFBF4",
"mX c #FFFEF8",
"MX c #FFF6F8",
"NX c #F9EEEB",
/* pixels */
"h h y y N ( r.e.H.G.G.J.J.J.G.G.G.m.G.z.z.m.l.l.n.s.t.0.;.x.rXuXfXgXyXMXMXhXtX`.5X`.].oX+X+X9X9X9X9X",
"r y y x h M N N ! ) r.k.G.J.J.J.J.G.m.l.g.n.l.N.l.l.s.B.gXxXjXlXE.E.rXNXMXkX6XB.`.{.].oX+X+X{.9X+X9X",
"u r r h h y r r c c N N _ #.k.H.m.m.J.J.G.n.m.z.6XrXjXxXuXqX_.aX7X7XMXmXnXkXrX6X`.{.].oXoX+X+X9X0X;X",
"r r r y y h h h t t c c c N N ! r.r.l.m.n.J.dXxXaXV.6X6XE.pXtXgXlX5XbXmXNXkX3X_.{.].].OX+X+X9X9X0X0X",
"r r y r r r t c c t c t w c c n x N o.w.X.n.vXbX5XC.xXaXy.sXqXaXlXE.MXmXmXkXJ.`.{.{.OXoXoX$X%X;X;X;X",
"u e r y y y t r t c t c c c c c w h Y O.P X.zXvX7XlXbXjXy.gXqXgXfX7XMXMXmXrXQ `.XX].].oX@X%X%X;X0X0X",
"u u r y y r h h c t c c w c c w n v k k g ..vXvX7XsXvXcXC.fX7XpXlX6XNXNXnXdXq.V.XX X].oX+X%X%X;X0X-X",
"r r r r t r t t w c w w c w w c c g f f g E kXyXeXW.tXcXC.lXeXaXlX`.MXnXjXuXt.q.XX{.oXoX$X%X0X0X-X0X",
"e u u y r r y r c c t w w w w $ - 4 > 2 2 ] 3XgXsXy.rXzXC.fXeXiXzXE.vX{.8 A y.x XX{.].+X0X9X%X0X;X-X",
"y h y y t r e w e w w w 4 w 4 , w d 4 3 d ..4XtXeX7XbXzXy.8XwXiXlX7XN.p Q A Q q._.{.$X X.X6X9X9X0X-X",
"N N N N x h t e w 5 , $ $ , 4 4 c D M g S X.kXcXsXwXbXjXV.8XiXqXzXs.O.o.s.q.t.x m.].;X{..X9X0X*X-X-X",
"_ _ ! Q ! Y N N c t 4 $ $ 4 c c ! e.X.^ / R kXvXpX`.jXaX5X5XqXtXbXxX`.2 x q.x 1 n. X%X X6X9X0X%X0X-X",
"9.9._  ._  .( ( N _ c t e c U ! #.e.r.#.| U hXvXgXY._.uXfXzXzXzXaXjXB.# x z : : (.|.@X X%X9X%X0X-X-X",
"9.9.9. . .0. .o.) #.( ! N ! ! ^ ! r.#.#.^ ~ hXbXcXgXjXlXtX{.l.k.a.u.u._.t.1 : f  X#XOX$X9X%X$X3X-X-X",
" .9. . . . . . .) _ #.! ! ) ! ! 9.k.k.e./ R |.uX}.Y.a.t.X.a.l.z.D.'.)._.x : : ! #X#XOX#X;X*X;X=X-X-X",
" .9. .9.9.9. . .#.#.#._ ! ! ! ! _ r.e.e.^ ..p.] ..u.a.l.n.A.F.G.).g.).E.0 1 # %.@X#XOX@X=X$X=X;X-XrX",
"%.%.%. .9.9.9.9.9.9._ #.! ! ^ ^ ) k.=.=.@.N =.=.=.d.d.H.H.H.H.A.G.G.F.J.M c 0 N 9XJ.0X X-X3X#X4X3X-X",
"| X.X.X.9.r.r.9._ _ 9._ ! ! ) ! ^ k.=.&.+.^ =.=.=.=.=.H.d.H.Z.Z.F.G.J.J.#.N N r J.9X{.%X&X=X=X=X-X-X",
"X.%.X.X.9. ._ Q N N 9.r._ _ ) ! ^ k.=.&.@.^ &.&.=.=.d.=.H.H.A.A.F.F.J.].G.N 9.0 l.9X{.%X$X=X=X#X=X-X",
"<.<.%.%.0.9.9.( c N 9.#.) ( ^ ! ^ k.e.e.@.N &.&.=.e.d.H.H.H.A.A.F.F.F.J.J.N N N Y {..X%X#X;X;X=X;X-X",
"<.<.<.%.a.a.w.0.y x N r.) ( ~ ! ^ k.d.e.@.^ e.&.=.=.d.h.H.H.H.A.F.(.F.(.{.%.M  .x k.rX.X%X$X#X-X=X-X",
"7 7 7 d d f h r N r N 9.| U Y ~ N e.d.k.@.^ e.&.e.=.d.k.H.H.A.A.S.F.(.[.XXm.x  .x _  X.X0X$X$X-X-X-X",
"= - 6 2 4 3 5 3 M u M _  .R U U ^ d.d.e.#.^ =.=.e.e.k.k.z.H.A.A.A.S.).).'.'.E M ( N k..X-X$X;X;XrX-X",
"- 7 7 6 6 6 3 3 I 5 r  .X.U b U N d.d.e.@._ e.e.e.d.k.k.z.H.A.A.).A.).!.).XXa.8 0.k M {.%X;XrX;X-X-X",
"- 6 6 6 7 4 3 3 x d 2 d X.S b U M a.h.d.i.! d.1.d.d.d.g.v.n.A.A.!.!.[.).|.'.B.d W E q X.0X X-X$X;X-X",
"7 ; 7 p p 8 8 8 k z + q X.U b D D i.k.a.i./ i.i.e.d.d.j.n.A.A.S.n.!.f.S 2 X & = j ] d d (.-X$XrX;X-X",
"- - i 8 p 3 3 < h d 2 d X.U b D M 3.h.k.i.! &.i.i.d.k.j.j.A.S.S.'.p.+   X   X # p T T 2 ~ 3X&X*X-X-X",
"i i 7 7 6 2 + @ d f q b <.R S D D &.g.f.d.^ 1.d.1.d.d.h.j.n.A.S.S.U O & @ o X o a p ` g - ).3X3X-X-X",
"s i i i 8 3 + # u k k Y i.U b D U $.n.k.k.[ $.k.3.d.f.h.j.H.A.S.S.j 2 T a & X   & * V l = p.3X.X=X-X",
"i 7 q p 7 8 + @ 5 k M ~ p.U S S D @.A.h.k.[ $.k.3.3.h.H.v.H.S.!.X.= p S @ o o o o 6 V ' 2.S.|.3X;X;X",
"i i 7 7 8 5 + @ 8 f k Y i.~ D D D @.n.j.h.@.$.h.4.f.h.h.H.Z.S.!.~ # o o & 6 * . * A u.U.3X1X|.3X&X*X",
"g s d s d 5 , @ u f g U i.~ D J U $.v.j.h.@.@.h.3.d.h.h.4.H.Z.~.E 9 A < < * % * * ' U.}.}.^.<X1X&X*X",
"v s j j g g 5 @ g t d O.d...H J U @.A.j.n.$.@.h.e.H.j.f.v.A.b.D.] f T A a a o o * 5.P.,X1X,X1X1X1X@X",
"b g j b j j w + e t f ~ p.[ H D / %.m.v.z.$.@.d.&.d.d.f.S.Z.M.).C # 8 A 6 X   a x.U.R.,X,XP.T.,X#X|.",
"P b b n b j d $ 3 e f ~ u.$.D J R ^ z.g.H.e.&.v.3.h.d.j.S.b.A.!.X.& 6 & o % * Z rXU.-.:.x.5.5.<X#X&X",
"P b S P b v q $ 3 e k W p.1.R H R o.v.b.H.$.+.d.4.h.c.4.b.b.Q.~.p.% @ o % .   Z ,X-.Z Z >.K C b.3X&X",
"S S S S n k e > , z f W u.<.R H R ] n.S.S.1.+.4.4.4.h.6.b./.^.^.x.; & .   . . Z U.-.' V a ; V I.|.|.",
"S C S S b j u > : 0 f W a.u.` G G ~ l.M.S.*.,.Q.c.c.I.Q./.^.<X>XQ.-.V . * K -.L.I.>.Z * % - C }.|.|.",
"P S S T b b d 2 : 0 z I X.o.S C E G [ } ` s G b.Q.6.I./.^.:X<X>X^.5.K -.Q.K.L.R.P.>.Z ; a a l p.|.[.",
"P S S U U S f 4 3 0 z A W l $ $ - O @ O O O G !.b.,.5./.^.^.>X2X:X}.I.I.:X/.T./.5.>.V V V s F Y.).).",
"S F S b S g P < 0 0 z A 0.3 O = - = - $ O O L ,.H 2.7.I.R.R.:X2X2X:X,X2X:X:X:XT.8.:.V a ; C T ~.!.D.",
"T T S v F d M 4 : : 0 A O.9 = C S R f.c.4.L G H V L -.7.I.2X,X2X2X2X<XR.>X>XT.T.L.Z Z ; a i ;.~.S.M.",
"U ' S C D g P 3 3 3 z A W ;.R U S D 1.1.c.2.} ,.,.} 5.-.-.:XI.R.R.U.>X2X>X:XR.R.L.B Z B i s n.N.b.v.",
"R R S S S l Y 8 < 3 9 9 p M.{ j v n <.$.f.1.G +.6.} ;.:.-.U.U.U.Y.P.R.R.L.I.R.L.:.B B B - ] M.b.l.g.",
"` R S C S j E 8 + : 9 d 6 c.] v n D 1.e.h.3.H [ +.} } ,.;.^.1XR.Y.1X,XP.P.U.I.P.L.L ; ; s c.S.b.c.f.",
"` ` S S S g E q 8 + < M T c.} G n n +.$.*.*.U *.} 2.{ $.} }.1Xx.x.s.P.Y.,XR.R.T.7.,.; ; } b.b.f.d.d.",
"E ` T S U C E 8 8 + @ C { c.} H n / @.h.&.*.U n ] [ { { ] Y.Y.;.A < A E.R.R./.T.L.8.B ; 2.b.4.1.1.1.",
"` ` F S U j E d + 3 2 j } 2.+.H n n n d.*.@.+./ *.J ] ..o.x.O.o.-.t.Y.R.:X/.K.K.K.7.V H c.c.2.f.2.*.",
"F { S S G k U j = = @ b R 4.+.H H m ^ 3.+.*.J J +.m B +.{ 2.] X.B.s.` ^.^.Q.6.Q.K.7.K G h.&.4.4.3.1.",
"G { G S S S T j 2 + O n / f.[ H H m / =.*.*.J J *.J m +.{ c.<.p.m.a.` ^./.K.6.Q.T.:.K G f.*.4.3.1.1."
};
