/* XPM */
static char *_d463788644a4b12b130676fe9cfbf0aHyNcOKWzcP1z04Lo[] = {
/* columns rows colors chars-per-pixel */
"50 50 242 2 ",
"   c None",
".  c #050304",
"X  c #0B0405",
"o  c #0D0C05",
"O  c #0B0509",
"+  c #0D0B0A",
"@  c #050607",
"#  c #110606",
"$  c #110A06",
"%  c #130509",
"&  c #140B0C",
"*  c #180C0C",
"=  c #14150B",
"-  c #1B130B",
";  c #191A0A",
":  c #161806",
">  c #160B10",
",  c #1A0D11",
"<  c #171212",
"1  c #1D1314",
"2  c #1D1A1A",
"3  c #0F1008",
"4  c #360304",
"5  c #221615",
"6  c #241A1A",
"7  c #281C1B",
"8  c #250C06",
"9  c #1E2109",
"0  c #1F2011",
"q  c #20220C",
"w  c #25280A",
"e  c #2A3906",
"r  c #282816",
"t  c #2D3513",
"y  c #363619",
"u  c #333114",
"i  c #2B2223",
"p  c #332826",
"a  c #3C3133",
"s  c #3D3326",
"d  c #4A0608",
"f  c #560B0C",
"g  c #720E0D",
"h  c #453834",
"j  c #42302A",
"k  c #6A2E33",
"l  c #782C08",
"z  c #344403",
"x  c #354D03",
"c  c #3A4E03",
"v  c #38460C",
"b  c #3D5402",
"n  c #3D5902",
"m  c #375102",
"M  c #3C4815",
"N  c #2B4106",
"B  c #3B4220",
"V  c #435D02",
"C  c #4B5808",
"Z  c #535A0B",
"A  c #424A16",
"S  c #534917",
"D  c #4A5A15",
"F  c #4D4F11",
"G  c #456302",
"H  c #4A6503",
"J  c #4C6C03",
"K  c #486604",
"L  c #546D03",
"P  c #586C0C",
"I  c #536709",
"U  c #4E7202",
"Y  c #547303",
"T  c #547A03",
"R  c #5A7B04",
"E  c #5B7407",
"W  c #576616",
"Q  c #4E651A",
"!  c #627D05",
"~  c #66790A",
"^  c #687D1B",
"/  c #646817",
"(  c #434223",
")  c #4E5B23",
"_  c #5A5626",
"`  c #6B5D34",
"'  c #596523",
"]  c #576C25",
"[  c #677826",
"{  c #6B7633",
"}  c #787F36",
"|  c #554F42",
" . c #776D4F",
".. c #8C120B",
"X. c #A9140A",
"o. c #B71A12",
"O. c #8D3808",
"+. c #B7350B",
"@. c #AC2F10",
"#. c #8D3E25",
"$. c #CD1C03",
"%. c #C51909",
"&. c #DA1501",
"*. c #D31703",
"=. c #E31302",
"-. c #EB1200",
";. c #F01100",
":. c #C7390B",
">. c #9A5A12",
",. c #9F4E09",
"<. c #BA4114",
"1. c #B15210",
"2. c #8E7215",
"3. c #B86C39",
"4. c #B66E2C",
"5. c #B05F21",
"6. c #C64F14",
"7. c #D1671B",
"8. c #C35B29",
"9. c #C17936",
"0. c #9D646E",
"q. c #9E5E57",
"w. c #C46B5F",
"e. c #5A8303",
"r. c #5F8A03",
"t. c #638404",
"y. c #6B8505",
"u. c #638C03",
"i. c #6C8C04",
"p. c #6A8509",
"a. c #6A8C09",
"s. c #728D04",
"d. c #768909",
"f. c #649203",
"g. c #6C9503",
"h. c #6C9B03",
"j. c #6C9406",
"k. c #729503",
"l. c #7D9406",
"z. c #749C02",
"x. c #7B9D03",
"c. c #799C09",
"v. c #77950D",
"b. c #6D8417",
"n. c #788C17",
"m. c #7A9517",
"M. c #6FA102",
"N. c #74A203",
"B. c #7BA303",
"V. c #7CA509",
"C. c #6D8526",
"Z. c #738923",
"A. c #748633",
"S. c #748345",
"D. c #869A09",
"F. c #919D07",
"G. c #879617",
"H. c #969C19",
"J. c #A89518",
"K. c #B08719",
"L. c #83A504",
"P. c #84AB03",
"I. c #8BAD02",
"U. c #87A609",
"Y. c #95A809",
"T. c #8DB203",
"R. c #8AB108",
"E. c #92B303",
"W. c #9CB204",
"Q. c #98B808",
"!. c #88A81C",
"~. c #96A917",
"^. c #9CB313",
"/. c #A8AE0A",
"(. c #A9B709",
"). c #A4B815",
"_. c #B7B314",
"`. c #B5A616",
"'. c #859C25",
"]. c #919D31",
"[. c #99A827",
"{. c #9BA836",
"}. c #90AB2A",
"|. c #A7B42E",
" X c #BE8930",
".X c #CD8F1D",
"XX c #C2A918",
"oX c #C89624",
"OX c #C8922B",
"+X c #C2AD2F",
"@X c #B5C705",
"#X c #AEC516",
"$X c #B5C31B",
"%X c #ACC804",
"&X c #B6C03A",
"*X c #CCD705",
"=X c #D2DD03",
"-X c #D1DB0E",
";X c #C3CF16",
":X c #CBD60F",
">X c #D4E203",
",X c #D9E403",
"<X c #DBE707",
"1X c #D9E616",
"2X c #CCE213",
"3X c #E3EC04",
"4X c #E7EA07",
"5X c #E4EE10",
"6X c #E1E228",
"7X c #E4E536",
"8X c #D8E22C",
"9X c #8C9449",
"0X c #9EA043",
"qX c #BDAC4A",
"wX c #ABB943",
"eX c #B3BC4A",
"rX c #BCBC5C",
"tX c #A1AE4E",
"yX c #A9AA6C",
"uX c #C79754",
"iX c #C9A450",
"pX c #D8817F",
"aX c #EF807B",
"sX c #C8AE67",
"dX c #B8C14A",
"fX c #BBC966",
"gX c #D7D64D",
"hX c #E1DE5A",
"jX c #CAD170",
"kX c #E9E76E",
"lX c #A09B91",
"zX c #AFAA9C",
"xX c #F09297",
"cX c #DC8789",
"vX c #CDD192",
"bX c #DDE3A9",
"nX c #E8E69C",
"mX c #E9E4C9",
"MX c #ECDFE4",
"NX c #F3E7EB",
"BX c #F9F4E0",
"VX c #D0C5C8",
/* pixels */
"                            |.wXeXeX                                                                ",
"                        }.|.^.Q.).|.dX                                                              ",
"                    {.^.Q.T.E.Q.W.)._.dX                                                            ",
"            zX| zXfX^.T.T.T.E.Q./.oXOX+XqX                                                          ",
"          MXVXlXbX|.R.T.T.E.(.XX.X6.+.<.OXiX                                                        ",
"          NXNXmXfX!.T.T.E.W._..X:.$.&.*.+.3.sX                                                      ",
"          NXBXbX|.R.T.T.E./.oX6.$.=.-.=.$.<.uX                                                      ",
"          mXbX|.E.T.T.I.(.XX7.$.=.;.-.-.&.$.3.                                                      ",
"            rX^.T.T.T.E./..X:.&.-.-.;.;.-.*.8.sX                                                    ",
"            [.E.T.E.E.W.XX7.*.=.-.-.-.;.-.&.6.uX                                                    ",
"          {.Y.E.I.I.E./..X:.&.=.=.=.=.=.-.&.6.iX                                                    ",
"          [.E.T.I.I.W.`.6.%.*.%.%.%.X.X.*.*.+.iX                                                    ",
"          [.E.T.L.I./.4.+.o...g g g f f ..%.+.iXsX                                                  ",
"          ~.I.Q.L.D.J.1.X...d 8 d d 8 4 f X.@.4.eX                                                  ",
"          !.I.Q.c.n.2.O...d 4 f k k q.0.0.w.@.,.qXsX                                                ",
"        {.~.L.Q.V.~ 2.>.,.l >.w.pXcXcXxXxXaX8.,.+XfX                                                ",
"        [.F.L.E.U.t.U.~.J.K.2.4.3.3.3.3.w.5.1.K.+XdX                                                ",
"        '.L.L.P.R.k.x.B.D.Y./.Y.H.J.J.K.J.J._.$X#XdX                                                ",
"        H.D.L.B.V.N.M.M.h.N.N.B.c.v.a.D.D.U.U.R.^.dX                                                ",
"        H.D.B.N.B.B.N.N.M.h.N.N.N.h.j.f.f.f.f.V.}.tX                                                ",
"        ].D.x.k.h.z.M.M.M.h.h.M.N.h.h.f.r.r.f.m.].          r < = < 1 r                             ",
"        ].l.k.h.h.g.h.h.f.r.r.f.u.r.e.e.U U U Q             5 @ X X $ 0 p p p 6 * * , 6 6 1 , 1     ",
"        0Xl.k.g.f.u.f.f.u.r.e.T U U J K G m m )           2 = . . o = ; : - - < & % X X O O % & p   ",
"          G.k.i.u.r.r.r.r.e.T U K G G n n m v B r 2 , + o X . . . + = o $ & % < & X X . . O % > 6 h ",
"          G.k.u.t.t.e.R e.R T J G V V V b x t ; + + O . . . . . . @ 3 : r o o * % O X O O X X % % > ",
"          [.s.y.! R T T Y U L H G b c c z e 9 $ + O . . O X . . X $ 9 ) S.y X * > . @ . + + X O & % ",
"        gX8X_.Y.p.E Y J J G G V b c z e e w o @ . . . . . X O . $ q ) A.A.y X * > O O . . X X X & , ",
"      hX6X4X4X8X$XF.d.E L H V V V C I Z A ; . . . . . . . $ * X 9 ) C.[ M = X 1 > O X X o % > , 1 i ",
"    kX6X4X4X4X4X<X-X;X_.F.F.F.F.Y./.~.d.F : X . . . @ @ : ) { M W Z.b.v : X X $ % & - a h           ",
"nXkX7X4X3X3X4X4X,X=X=X=X*X*X*X*X*X@X(.D.Z 9 . . @ = t Q C.'.!.m.m.G.m.[ M 9 - - r y y  .            ",
"gXgX6X1X2X1X3X3X<X,X,X=X=X=X=X*X*X*X(.F.E A : t D C.m.}.R.V.c.j.y.y.~ ^ A.} { [ S.9X0XyX            ",
"kX|.|.~.Y.Q.%X>X,X,X,X=X3X=X,X,X<X*X@XW.D.a.Z.!.!.V.R.P.V.N.v.t.L I C C F Z / / / } yXvX            ",
"fXn.I ! L.E.E.%X>X<X-X-X1X3X4X5X;XQ.Q.I.I.Y.R.R.T.V.V.B.z.g.u.! P Z F F S S S ` q.                  ",
"].b.C v.Y.E.I.I.%X2X).[.7X5X1X8X).L.I.E.T.T.T.T.T.T.T.B.z.a.E P W D S S ` `  .                      ",
"v.T v b.Y.I.T.P.I.Q.U.U.#X#XQ.T.T.T.T.T.T.P.P.P.!.V.N.m.Z.[ D A A h _                               ",
"j.T e D m.L.P.P.P.P.I.L.I.P.R.T.T.P.P.L.V.x.m.m.C.] M v t u q $ O O a                               ",
"c.r.v N P k.x.x.x.L.L.B.B.B.P.L.L.x.c.j.b.b.Q M t 3 o . o 3 # # # % i                               ",
"V.j.Y m m I ~ t.y.y.i.s.k.s.s.y.p.b.[ Q v t t 0 = o @ @ @ @ O , % % i                               ",
"c.h.k.R V b c c C D I I P L E I v t w e v v 0 + @ @ + @ @ + > & % % 7                               ",
"c.h.L.V.a.E V z w e e e C H H x e N N m D D t 2 @ @ + @ . @ 2 * % % 7                               ",
"l.B.P.P.x.z.k.y.E H J Y ! R J V V c x V C W ( i o $ 3 . @ + & % & > i                               ",
"l.x.L.B.B.x.B.B.V.z.k.k.a.T H V V V x b G P A $ $ r - $ = + & # O & 6                               ",
"k.x.B.B.x.B.B.z.x.N.z.u.T G V V V b x n V P ' : ; ( p 8 $ $ % # # * q                               ",
"d.k.z.z.N.z.B.N.z.z.g.T G V V V V n m n G P ' : p   j - # X # X % 5 h                               ",
"d.s.k.N.z.z.N.z.N.B.g.T K G V V V V n n V P ' -     h * X X X # % ,                                 ",
"! y.k.z.z.N.z.z.z.B.N.g.T H G V G n n n V P ' s       , X X # # , j                                 ",
"! ! i.k.k.k.k.z.B.B.L.B.z.t.L H H G V V V I {  .      7 % $ * 5 h                                   ",
"y.t.y.k.k.h.z.N.B.P.L.P.P.B.k.i.! T H V V P 9X            p                                         ",
"l.d.y.s.k.k.k.k.N.B.B.L.P.P.P.P.P.V.t.L I b.tX                                                      ",
"v.s.n.a.s.j.j.z.h.c.z.V.V.P.P.T.R.P.j.R E G.|.                                                      "
};
