/* XPM */
static char *_83244c4ac27405fe39e5bd1be210bdakVL1fHiHbVhWupVu[] = {
/* columns rows colors chars-per-pixel */
"50 50 252 2 ",
"   c #090908",
".  c #191A17",
"X  c #39130C",
"o  c #2B1813",
"O  c #351713",
"+  c #2E221D",
"@  c #292823",
"#  c #2C2D2A",
"$  c #392C27",
"%  c #2F3028",
"&  c #36342E",
"*  c #383833",
"=  c #3D3B35",
"-  c #46180E",
";  c #441912",
":  c #581E11",
">  c #472119",
",  c #5B241A",
"<  c #662818",
"1  c #742C1B",
"2  c #77311E",
"3  c #482924",
"4  c #4F3129",
"5  c #57352C",
"6  c #453D36",
"7  c #583C35",
"8  c #6F2C2A",
"9  c #7A2823",
"0  c #673428",
"q  c #793727",
"w  c #6A3E34",
"e  c #773D33",
"r  c #44433C",
"t  c #4A463C",
"y  c #5D433B",
"u  c #6A463B",
"i  c #774630",
"p  c #774738",
"a  c #4B4A43",
"s  c #494945",
"d  c #554C43",
"f  c #53534A",
"g  c #5A5549",
"h  c #5D5C53",
"j  c #595956",
"k  c #664A42",
"l  c #6B4D42",
"z  c #7A4E44",
"x  c #6A5549",
"c  c #635C4D",
"v  c #745244",
"b  c #785749",
"n  c #635E53",
"m  c #605E5A",
"M  c #7A5D54",
"N  c #66614E",
"B  c #656153",
"V  c #6A6555",
"C  c #65655B",
"Z  c #6B6559",
"A  c #6E6A5A",
"S  c #796559",
"D  c #736D5D",
"F  c #6A6C64",
"G  c #666969",
"H  c #746964",
"J  c #6E716C",
"K  c #757262",
"L  c #7A7465",
"P  c #78766A",
"I  c #7D7B6B",
"U  c #757673",
"Y  c #7C7C72",
"T  c #85331C",
"R  c #8F3319",
"E  c #872E29",
"W  c #883927",
"Q  c #953B27",
"!  c #8A3934",
"~  c #973B35",
"^  c #A63C33",
"/  c #8A412A",
"(  c #964527",
")  c #9C4324",
"_  c #94422C",
"`  c #9B422B",
"'  c #854433",
"]  c #874737",
"[  c #8C4C3B",
"{  c #944531",
"}  c #954934",
"|  c #974936",
" . c #9B4A35",
".. c #9C4D3A",
"X. c #8D513F",
"o. c #94543E",
"O. c #9C523D",
"+. c #A3452B",
"@. c #A7462B",
"#. c #A44B34",
"$. c #A94838",
"%. c #B74C30",
"&. c #A3533D",
"*. c #AC543B",
"=. c #AD593C",
"-. c #B65738",
";. c #B9613D",
":. c #C2552E",
">. c #C35A35",
",. c #954E44",
"<. c #855343",
"1. c #8A5745",
"2. c #845C4B",
"3. c #945442",
"4. c #9B5542",
"5. c #915248",
"6. c #985948",
"7. c #9D5D4B",
"8. c #855A52",
"9. c #A94843",
"0. c #B64B44",
"q. c #AA5C44",
"w. c #A35C48",
"e. c #B65647",
"r. c #AA5C53",
"t. c #B75A56",
"y. c #BD5B53",
"u. c #81624D",
"i. c #8D634D",
"p. c #96634C",
"a. c #9C634E",
"s. c #896758",
"d. c #936553",
"f. c #9B6453",
"g. c #946B56",
"h. c #9B6B56",
"j. c #9E615A",
"k. c #946B5C",
"l. c #9C6C5B",
"z. c #82725F",
"x. c #97735A",
"c. c #9B735C",
"v. c #A4644D",
"b. c #AA674C",
"n. c #B46648",
"m. c #A56B54",
"M. c #A86856",
"N. c #A36C5A",
"B. c #B76959",
"V. c #A3745C",
"C. c #AA735B",
"Z. c #B87558",
"A. c #886B65",
"S. c #976B63",
"D. c #8C7566",
"F. c #827D6D",
"G. c #9C7462",
"H. c #997968",
"J. c #867C75",
"K. c #967974",
"L. c #A66C63",
"P. c #A97765",
"I. c #A47B63",
"U. c #AC756F",
"Y. c #A27D6B",
"T. c #B87A64",
"R. c #BA7874",
"E. c #C1534B",
"W. c #C25B53",
"Q. c #C5625A",
"!. c #C47251",
"~. c #C55F68",
"^. c #CA6A65",
"/. c #D06F6C",
"(. c #C8766C",
"). c #C97975",
"_. c #D17B77",
"`. c #7F8172",
"'. c #B5805E",
"]. c #84816F",
"[. c #858373",
"{. c #8A8573",
"}. c #8A8679",
"|. c #8C8B7B",
" X c #988571",
".X c #928D7B",
"XX c #9B8879",
"oX c #94917E",
"OX c #A4826D",
"+X c #A9836B",
"@X c #B6866C",
"#X c #A48B74",
"$X c #A78876",
"%X c #B58977",
"&X c #A99379",
"*X c #AA947C",
"=X c #B5937A",
"-X c #C98966",
";X c #C68278",
":X c #C39779",
">X c #D39172",
",X c #E08E7A",
"<X c #8B8C86",
"1X c #918C8D",
"2X c #8E9083",
"3X c #949484",
"4X c #9A9684",
"5X c #98968A",
"6X c #9B9B8B",
"7X c #979B97",
"8X c #A48986",
"9X c #A69A87",
"0X c #B59A84",
"qX c #B29692",
"wX c #9FA08E",
"eX c #9EA093",
"rX c #A7A18C",
"tX c #B7A48B",
"yX c #A4A494",
"uX c #A8A698",
"iX c #ACAD9C",
"pX c #B7AB95",
"aX c #B6B19D",
"sX c #A0A1A3",
"dX c #A9A9A5",
"fX c #B1AEAC",
"gX c #ADB2A9",
"hX c #B4B6A8",
"jX c #B5B9B6",
"kX c #CA8583",
"lX c #CA9486",
"zX c #D99883",
"xX c #E29890",
"cX c #C7A991",
"vX c #E7A495",
"bX c #C7B7B5",
"nX c #BAC1BC",
"mX c #C4C1BB",
"MX c #BBC2C4",
"NX c #CAD0CF",
"BX c #D3DBD8",
"VX c #D8E1DE",
"CX c #D7DEE2",
"ZX c #DAE3E2",
"AX c #D8E5E8",
"SX c #DDEAEB",
"DX c #DFECF0",
"FX c #E0ECEC",
"GX c #E1EEF2",
"HX c #E3F1F4",
"JX c #E5F4FA",
"KX c #E9F7F9",
/* pixels */
"D =X-XZ.;.>.:.:.:.-.>.>.=.@Xn.p.<.z.i v s.s.c.a.v.c.u.o.=.=.O.b.=XY.6.] d.%X@Xa.f.N.] 3.Z.+X#X9XOXx ",
"u Z.=XlX:X-X!.>.>.:.>.-.;.'.@.@.=.b.p.S b v 2.w.v.=.=.o.g.x.[ o.4.V.OXl.f.l.P.+XG.b.&.&.-.b.H.+X$Xl ",
"0 &.&.q.m.Z.:X:X:X-X!.n.;.-X%.%.@.&.v.g.d.8.z 1.&.n.-.-.n.=.1.1.6.f.h.c.@X+Xf.g.OX#Xn.>.n.b.m.Y.OXx ",
"0 O.9.&.#.#.o.i.Z.@X:XlX:X=Xp.;.%.@.h. Xk.f.V.m.a.m.-.-.:.-.-.V.f.p.d.3.4.m.I.H.h.g.V.n.n.h.h.c.$Xb ",
"< ..#.#.#. .w.I.` @.@.*.n.C.%X0X=XC.p.g.d.d.N.q.*.q.b.n.;.=.;.;.O.3.f.d.3.| 3.d.OXc.i.h.P.b.h.OXY.k ",
"7 <.[ {  .#.w.P.#.) +.@.#.&.=.w.C.tXpX&XOXl.h.&.%.*.=.*.=.b.'.+X5.6.5.1.k.d.G.5.[ 6.I.G.6.f.P.H.$Xl ",
"M 0XtX&XOXG.g.Y.} ` +.+.#.b.=.+.#.m.&X+X#X0X=XY.m.4.&.$.*.T.#XrX8X8X1XK.K.P.U.U.h.3...v.c.f.f.G.Y.l ",
"0 V.a.m.T.%X0XtX#XH.x.6.[ O.&.#.#.&.+Xh.S.v.v.P.@X=X#Xh.w.R.%X-X).).8XK.8XqXR.U.f.f.f.O.[ 4.V.d.1.u ",
"1 m.} ) Q ^ ( O.v.P.%X*X#XD.b i / ] G.2.k.j.v.M.r.q.Z.Z.B.y.Q.(.).R.S.A.1XsXsX8XH.,...w.h.3.3.m.c.w ",
"2 p.} +.@.@.+.) ` { { ..m.C.+Xh.x.s. Xs.M s.d.v.&.$.Z.*.e.y./.).kXR.S.J.8XsXfXdXdX8Xh.4.O.4.4.3.v.l ",
"< p.} +.%.*.$.#.#.Q ` ` ..w.C.&.7.l.Y.l.G.I.$XOXc.h.V...0.t.(.).).R.K.<X7X1XsXhXjXMXqXP.m.v.{ o.a.w ",
"c pX#Xg.2.6.o...#. .+. ...4.v.` ..N.Y.f.j.a.f.I.m.T.C.0.e.y./._.kXU.K.J.1X<X<XdXjXjXjXY.4.b.v.6.4.5 ",
"p @X@X=X@X=X&X*X*XY.x.d.1.g.c.q ' k.K.N.N.N.l.P.4.&.,.0.^._._.kXR.S.J.J.K.U P 1XfXjXjXsXL.v.4...O.w ",
"q -.q.*.-.e.Z.cX:XB.Z.@X%X0XtX#X XD.D.D.D.H.k.8.[ d.8.L.R.kX;XR.U.J.H M A.s.H U 7XfXjXjXuXP.C.m.v.w ",
"q e.=.*.-.*.-.:X@X@.@.@.*.&.7.N.U.*X0X*X8X&X&X0X*XG.<.0 ! ~.).R.U.U.S.r.! 5.H Y <XeXhXjXgX$Xr.4.b.u ",
"q -.-.-.*.-.*.b.B.@.@.+. . .} o.j.XX8Xd.j.Y.H.L.L.t.6.,.t.^./.).).R.).B.~ 9.M U J ].1X7XdX0XZ.B.B.i ",
"0 O.&. . . . .a.C.+.+.^ ` ` { { 6.XXXXs.S.8XH.S.t.~.r.9.~.~._./.kXkXxXt.~ ,.k m j G U 7XhXbXcXB.Z.i ",
"N #Xx.V.h.c.c.&X:X&X+X+XI.h.h.h.d.H.K.s.A.A.A.5.,.! ! 9.0.~.^./.).)./.B.^.9.5 7 3 m sXBXAXAXDXNX0XN ",
"u @X#.#.#. .&...O.v.b.C.C.T.0XP.+XOX$XOXU.S.S.K.A.z 9 9.y.W.W.^.t.^.y.y.~.W...! A.MXJXJXJXJXJXJXVXJ.",
"u @X` ` ) ( { |  . ... .} 3.l.[ j.j.H.S.S.s.8.8.! ! E 9.E.W.W.t.t.0.9.^ y.W.E.T.BXJXJXJXJXJXJXJXAXU ",
"l @XQ ` ` Q ` ` ( } { _ _ O.h.[ j.k.K.S.A.8.z w e 9 , ~ 0.E.y.0.^ ^ 9.9.E.e.t.NXSXHXJXJXJXJXKXKXGXU ",
"y V.W / _ Q } { / ] ' / / o.d.e z 8.8.b l d 7 5 8 e 8 E 0.0.0.^ ^ ^ ~ ^ 0.0.bXSXDXJXJXHXJXJXJXJXKXsX",
"K pX*X*X&X&XI.#X9XtX0X#X#XOXx.s.D.s.S z l k w l b <.~ E ^ ^ ^ ^ E E E ^ 9.qXZXFXHXGXFXGXHXHXHXHXJXsX",
"u m.b.v.v.v.a.c.f.3.6.a.a.3.[ ] 1.s.8.z l x u w z z ! ~ Q ^ ^ ^ 9 1 E ~ L.BXVXZXZXSXFXFXFXZXAXSXJX7X",
"< Q ( ( _ } } <.q W W W ' / ' W <.2.s.x g h 7 7 7 8 ~ 0.E W E E 9 9 9 ! bXAXBXNXBXVXFXHXFXSXGXGXAX7X",
", / W Q _ ( [ 1.q W T W ' W W q p z M x d d 6 y y k e ! E < < , , , 8 fXZXZXBXBXBXBXVXAXVXVXAXAXAX7X",
", W R W Q W [ i.e q ' ' ] <.i.i.x.&X&XH.A.J.D b x M z 0 , ; ; O X , 8XCXSXAXBXMX7X2X`.eXiXgXgXgXMX<X",
"5 [ 1.g.k.OX*XrX#X&X&X9X&XtX&Xc.c.I.k.6.z b k 0 8 u e } w $ $ $ O A.NXNXfX<XU G C `.`.wXyXnXiXiXgXJ ",
"L aXtX0X=X&X+Xm.f.6.%XP.[ x.] i W ] 2.<.e y 7 0 < w p p 6 U J.H J.dX1Xh a J 2X3X3X5X2XeXnXiXnXnXnXU ",
"A.@X6.{ } } } } Q  .lXlX4.h.] W W ] X.1.e l b p z k M M m jXfXU <XiXF.H 5X3X.X|.|.wX5XeXgXiXeXiXgXU ",
"v o.[ .. . .} ) ) ` B.kXT.d.[ T / <.2.s.A.A.M k 7 7 0 l U NXjXJ.7Xj * 6 P {.I L `.}.`.2XeXgXiXiXgXJ ",
"u } v.).;X-XB.*.+.Q  .t.(.@Xx.x.x.g.1.2.v 7 3 3 ; 3 4 V [.NXjXsXF   r F.J.D K B C `.}.`.2X2X2X6XeXF ",
"u / o.3.6.R.zXzX(.@X&XM.(.zXP.W 1.L.L.8.5 6 k 3 + 3 4 g <XMX7XU & f }.{.c d r f K oX3XoX3XoX2XeXwXC ",
"c OXL.M.t.7.5.Z.zXvXzXT.(.zX;XM._.xXvXzX(.z J.Z 6 d m s 7X7XJ j f .X.XH 6 r y c g N V K I `.|.3XeX`.",
"b d.e ,.6.M.C.w.b.>X-X-XZ.>XzXcXR.U.kXxX,XL.{.}.C r * s 1XY |.Y m {.{.t t S D D `.|..XoXoX|.{.].`.h ",
", T 1 0 ' 4.7.M.r.b.!.!.-X>X>X>XB.] kXvXxXL.F.H f # @ j 1X<XF & s n f % A D A A L |.].{.].{.{.|.|.h ",
", T T : - W r.7.6.6.b.n.n.!.>X:XtX%X;X).f.M V h * . # G U s @ . # g r r 6 t N K L ].{.oX3X3X3X4X6XF ",
": R R T 1 l f.B.M.X.' =.q.n.%XtXaXaXU.5 $ t f * @ . # G r # s & = d t d N A A A K `.[.{.|.|.oX4XwXF ",
", / o.H.uXuXD.m.a.i > <  .V.rXrXaXaXuXr % 6 * . . . * m * d d = a r g g c c V K K `.`.`.`.|.oX3XeXF ",
"L cXcXpX=Xh.p > X X X X u 9XrXrXpXaXhXeXd + .     . * s r m m d = f I D V V V V D D `.[.oX3X3XoXoXh ",
"N =.o.( ( ( / 2 < - X o F.rXoX9XyXiXiXiXrXt       . r r t K D f # t V ].|.].L L `.].{.|.|.[.[.{.2XC ",
"< ( ( ) ( ) ) ( T < X + ].rX9XoX4XrXiXiXiXwX%     @ a = h K C = g V n V V V N N N V A D L ]..XoX2XC ",
"2 ) ( R ) ( ) R i i y r A.oXoX6XwXrXrXrX4XwX}.&   @ r * N h = * L {.K V N N N N V D L `.|.oX3XoX3XF ",
"< ) ) R ( o.c.+XV.i.> 3 N F.oXrXoX.X{.oX4XwXoX`.h r * * h t f f g F..X|.|.].K `.I ].].{.oX6X3X3X6XC ",
"< ( p.OX*XtXOXu.q < - x A c {.4XwX.X.X].{.|.].|.3X`.* % s % h P d g V K `.].|.].|.oX3X3X6X3X|.2X`.f ",
"A =X#X XOXi 2 1 1 : X + y h ].oX*X.X{.].{.|.oXyXyXwXA # * @ h |.F.V c g V K `.`.`.`.`.`.`.`.`.|.`.h ",
"u ( 1 2 i.2 2 2 1 : - O * B I {.{..X{.].oXoX3X4X3X6X5XY F f `.`.L I F.L D `.{.`.`.`.`.|.|.|.|.`.`.C ",
"> < < 2 i.1 < 1 2 b z.N t y I .X.X.X.X].rXoX3X|.6X3XeX3X3XB oX|.D g c V A D `.`.].{.2X`.oX|.`.C `.h ",
"X < < 2 b < i ].&X#Xv O o o N &XoX.X].].*XwX|.|.oXoX6X|.`.r `.iX4XF.A N N V V V A `..X3X3XoXF `.|.f ",
"X < : i #X&X*X+X<.2 : X o o & oXoX].`.`.yX*X].|.|.oX`.6X`.r h `.6X6X4X|.].L `.L D A ].oXwX2X`.|.`.t "
};
